<?xml version="1.0" standalone="no"?>
<!DOCTYPE svg PUBLIC "-//W3C//DTD SVG 20010904//EN"
 "http://www.w3.org/TR/2001/REC-SVG-20010904/DTD/svg10.dtd">
<svg version="1.0" xmlns="http://www.w3.org/2000/svg"
 width="700.000000pt" height="700.000000pt" viewBox="0 0 700.000000 700.000000"
 preserveAspectRatio="xMidYMid meet">
<metadata>
Created by potrace 1.14, written by Peter Selinger 2001-2017
</metadata>
<g transform="translate(0.000000,700.000000) scale(0.100000,-0.100000)"
fill="#000000" stroke="none">
<path d="M2830 6985 c-154 -36 -249 -85 -373 -194 -60 -53 -137 -173 -184
-287 -26 -61 -40 -165 -42 -309 -1 -82 -6 -152 -11 -155 -6 -4 -179 -5 -226
-1 -6 1 -16 12 -23 25 -7 13 -32 34 -55 47 -39 22 -50 23 -222 23 -181 0 -182
0 -223 -27 -22 -15 -47 -37 -55 -49 l-15 -23 -463 1 c-445 1 -524 -3 -578 -27
-94 -41 -142 -71 -195 -124 -77 -76 -120 -151 -146 -253 -19 -77 -20 -106 -17
-1223 l3 -1144 23 -56 c50 -125 129 -220 231 -279 l57 -34 0 -1235 c-1 -1157
2 -1315 22 -1366 64 -157 178 -258 322 -285 72 -14 5607 -14 5679 0 163 31
312 181 336 340 4 25 8 608 8 1296 l0 1251 51 31 c124 74 221 210 245 342 3
19 6 555 6 1190 l0 1155 -23 65 c-57 158 -176 276 -333 331 -63 22 -75 23
-553 24 l-488 2 -25 31 c-44 57 -79 66 -253 67 -85 1 -171 -3 -190 -8 -19 -5
-53 -28 -76 -51 l-42 -41 -116 1 c-64 1 -119 4 -122 7 -3 3 -7 81 -8 174 -3
159 -12 229 -38 298 -87 232 -256 390 -493 461 -55 16 -117 18 -700 20 -492 1
-653 -1 -695 -11z m1186 -734 c11 -1 14 -202 2 -211 -5 -4 -1001 -5 -1044 -1
-7 1 -10 39 -8 109 1 59 2 107 3 107 6 1 1039 -2 1047 -4z"/>
</g>
</svg>
