<svg version="1.1" id="Layer_1" xmlns="http://www.w3.org/2000/svg" xmlns:xlink="http://www.w3.org/1999/xlink" x="0px" y="0px"
	 width="100%" height="100%" viewBox="0 0 595.28 419.53" style="enable-background:new 0 0 595.28 419.53;" xml:space="preserve">
<style>
svg {
  position: absolute;
  top: 0;
  left: 0;
  right: 0;
  bottom: 0;
  margin: auto;
  background-color: rgb(247,229,211);
}

.st0 {
  stroke-dasharray: 427.5171203613281;
  stroke-dashoffset: 427.5171203613281;
  animation: dash0 30s ease-in-out alternate-reverse infinite;
}
.st1 {
  stroke-dasharray: 640.036376953125;
  stroke-dashoffset: 640.036376953125;
  animation: dash1 30s ease-in-out alternate infinite;
}
.st2 {
  stroke-dasharray: 177.16757202148438;
  stroke-dashoffset: 177.16757202148438;
  animation: dash2 30s ease-in-out alternate infinite;
}
path {
  fill: #3F4C5C;
  stroke: #3F4C5C;
}
@keyframes dash0 {
  0% {
    stroke-dashoffset: 427.5171203613281;
    stroke-width: 2;
    stroke-opacity: .5;
    fill-opacity: .05;
  }
  100% {
    stroke-dashoffset: 0;
    stroke-width: 2;
    stroke-opacity: .5;
    fill-opacity: .1;
  }
}
@keyframes dash1 {
  0% {
    stroke-dashoffset: 640.036376953125;
    stroke-width: 2;
    stroke-opacity: .5;
    fill-opacity: .1;
  }
  100% {
    stroke-dashoffset: 0;
    stroke-width: 2;
    stroke-opacity: .5;
    fill-opacity: .1;
  }
}
@keyframes dash2 {
  0% {
    stroke-dashoffset: 177.16757202148438;
    stroke-width: 2;
    stroke-opacity: .5;
    fill-opacity: .1;
  }
  100% {
    stroke-dashoffset: 0;
    stroke-width: 2;
    stroke-opacity: .5;
    fill-opacity: .1;
  }
}
</style>
  <path class="st0" d="M1050.9,329.3L745.4,23.9C720.7-0.8,691.9-24,661.5-43.5c-19.6-30.3-42.7-59.2-67.4-83.9l-44.9-44.9
	c-195.7-195.7-514.1-195.7-709.8,0l-24.7,24.7c-94.8,94.8-147,220.8-147,354.9c0,24,2,49.6,5.7,74.5c-4.8,32.7-6.5,66.6-4.9,98.5
	c6.2,124.7,58.1,241.9,146.2,330l72.6,72.6c94.8,94.8,220.8,147,354.9,147c23.9,0,49.4-1.9,74.2-5.6c24.7,3.7,50.1,5.6,74,5.6
	c134.1,0,260.1-52.2,354.9-147l305.5-305.5l-74.1-74.1L1050.9,329.3z"/>
<path class="st1" d="M983,329.3L711.4,57.8C686.6,33,657.5,10.1,626.7-8.7c-18.9-30.8-41.7-59.9-66.5-84.7l-44.9-44.9
	c-177-177-464.9-177-641.9,0l-24.7,24.7C-237-27.9-284.2,86.1-284.2,207.3c0,24.1,2.2,49.7,6.3,74.5c-5.2,31.9-7.1,65-5.6,96.2
	c5.6,112.8,52.5,218.8,132.2,298.5l72.6,72.6C7.1,834.8,121,882,242.3,882c24,0,49.5-2.1,74.2-6.2c24.7,4.1,50.1,6.2,74,6.2
	c121.2,0,235.2-47.2,320.9-132.9L983,477.6l-74.1-74.1L983,329.3z"/>
<path class="st2" d="M915.1,329.3L677.5,91.7c-25-25-54.5-47.4-85.8-65.4c-18-31.3-40.4-60.8-65.4-85.8l-44.9-44.9
	c-158.2-158.2-415.7-158.2-574,0l-24.7,24.7C-194-3-236.2,98.9-236.2,207.3c0,24.2,2.4,49.7,7,74.4c-5.7,31-7.8,63.3-6.3,94
	c5,100.9,47,195.6,118.2,266.9l72.6,72.6C31.9,791.8,133.9,834,242.3,834c24.1,0,49.6-2.4,74.2-6.9c24.6,4.5,50,6.9,74,6.9
	c108.4,0,210.4-42.2,287-118.8l237.6-237.6L841,403.5L915.1,329.3z"/>
<path class="st0" d="M847.2,329.3L643.6,125.7c-25.3-25.3-55.2-47.2-87.2-64c-16.9-32.1-38.8-61.9-64-87.2l-44.9-44.9
	C307.9-210,80.9-210-58.7-70.4l-24.7,24.7C-151,21.9-188.2,111.7-188.2,207.3c0,24.3,2.7,49.8,7.9,74.3c-6.3,30.1-8.8,61.6-7.3,91.6
	c4.4,88.9,41.4,172.5,104.2,235.3l72.6,72.6C56.8,748.8,146.7,786,242.3,786c24.2,0,49.7-2.7,74.2-7.9c24.5,5.1,49.8,7.8,74,7.8
	c95.6,0,185.5-37.2,253.1-104.8l203.6-203.6l-74.1-74.1L847.2,329.3z"/>
<path class="st2" d="M779.3,329.3L609.6,159.6c-25.5-25.5-56.1-46.9-89.1-62.2c-15.3-32.9-36.7-63.6-62.2-89.1l-44.9-44.9
	c-120.8-120.8-317.4-120.8-438.2,0l-24.7,24.7c-58.5,58.5-90.8,136.3-90.8,219.1c0,24.4,3.1,49.9,9.1,74.3
	c-7.1,29.1-10,59.9-8.6,89.3c3.8,77,35.9,149.4,90.2,203.8l72.6,72.6C81.7,705.8,159.5,738,242.3,738c24.3,0,49.9-3.1,74.2-9.1
	c24.3,5.9,49.8,9,74.1,9c82.8,0,160.6-32.2,219.1-90.7l169.7-169.7l-74.1-74.1L779.3,329.3z"/>
<path class="st1" d="M711.5,329.3L575.7,193.6c-26-26-57.5-46.4-91.7-59.5c-13.1-34.2-33.5-65.8-59.5-91.7L379.5-2.6
	C277.4-104.7,111.3-104.7,9.2-2.6l-24.7,24.7C-65,71.6-92.2,137.4-92.2,207.3c0,24.6,3.7,50.1,10.8,74.2c-8.2,28.1-11.7,58-10.3,87
	c3.2,65.1,30.3,126.2,76.2,172.2l72.6,72.6c49.5,49.5,115.2,76.7,185.2,76.7c24.6,0,50.1-3.7,74.2-10.8c24,7,49.5,10.7,74.1,10.7
	c70,0,135.7-27.2,185.2-76.7l135.8-135.8l-74.1-74.1L711.5,329.3z"/>
<path class="st0" d="M242.3,642c-57.1,0-110.8-22.2-151.2-62.6l-72.6-72.6c-37.5-37.5-59.6-87.4-62.2-140.6
	c-1.4-28.7,3-57.8,12.9-84.7c-8.7-23.7-13.3-49.1-13.3-74.2c0-57.1,22.2-110.8,62.6-151.2l24.7-24.7c83.4-83.4,219.1-83.4,302.5,0
	l44.9,44.9c26.8,26.8,45.7,59.7,55.4,95.9c36.2,9.7,69.1,28.6,95.9,55.4l101.8,101.8l-74.1,74.1l74.1,74.1L541.7,579.4
	c-40.4,40.4-94.1,62.6-151.2,62.6c-25,0-50.4-4.6-74.1-13.2C292.8,637.5,267.3,642,242.3,642z M194.4,16.8"/>
<path class="st1" d="M575.7,329.3l-67.9-67.9c-28-28-64.2-44.8-103.3-48c-3.2-39-20-75.3-48-103.3l-44.9-44.9
	C247,0.6,141.8,0.6,77.1,65.3L52.4,90C21,121.4,3.8,163,3.8,207.3c0,25.8,6,51.2,17.5,74.2C8.6,306.9,2.7,335.1,4.1,363.8
	c2,41.2,19.2,80,48.2,109l72.6,72.6c31.3,31.3,73,48.6,117.3,48.6c25.8,0,51.2-6,74.1-17.5c23,11.4,48.3,17.4,74.1,17.4
	c44.3,0,86-17.2,117.3-48.5l67.9-67.9l-74.1-74.1L575.7,329.3z"/>
	<path class="st1" d="M507.8,329.3l-33.9-33.9c-22.3-22.3-51.9-34.5-83.4-34.5c-14,0-27.7,2.4-40.5,7.1c4.7-12.8,7.1-26.5,7.1-40.5
		c0-31.5-12.3-61.1-34.5-83.4l-44.9-44.9c-46-46-120.7-46-166.7,0L86.3,124c-22.3,22.3-34.5,51.9-34.5,83.4
		c0,27.3,9.2,53.2,26.2,74.1c-37.4,46.2-34.5,114.6,8.3,157.5l72.6,72.6c22.3,22.3,51.9,34.5,83.4,34.5c27.3,0,53.2-9.2,74.1-26.2
		c20.9,16.9,46.8,26.2,74.1,26.2c31.5,0,61.1-12.2,83.4-34.5l33.9-33.9l-74.1-74.1L507.8,329.3z"/>
<g>
	<path class="st0" d="M291.7,477.6L291.7,477.6c-27.3,27.3-71.5,27.3-98.8,0L120.3,405c-27.3-27.3-27.3-71.5,0-98.8l0,0L291.7,477.6
		z"/>
	<path class="st0" d="M145,133.2L145,133.2c27.3-27.3,71.5-27.3,98.8,0l44.9,44.9c27.3,27.3,27.3,71.5,0,98.8l0,0L145,133.2z"/>
	<path class="st0" d="M341.1,329.3L341.1,329.3c27.3-27.3,71.5-27.3,98.8,0l0,0l-49.4,49.4L341.1,329.3z"/>
	<path class="st0" d="M439.9,477.6L439.9,477.6c-27.3,27.3-71.5,27.3-98.8,0L120.3,256.7c-27.3-27.3-27.3-71.5,0-98.8l0,0
		L439.9,477.6z"/>
</g>
  
</svg>