<?xml version="1.0" encoding="utf-8"?>
<!-- Generator: Adobe Illustrator 27.9.0, SVG Export Plug-In . SVG Version: 6.00 Build 0)  -->
<svg version="1.1" id="Layer_1" xmlns="http://www.w3.org/2000/svg" xmlns:xlink="http://www.w3.org/1999/xlink" x="0px" y="0px"
	 viewBox="0 0 64 64" style="enable-background:new 0 0 64 64;" xml:space="preserve">
<style type="text/css">
	.st0{fill:#EAE5D3;}
	.st1{fill:#1A2734;}
	.st2{fill:#F4C575;}
	.st3{fill:#404C5C;}
</style>
<g>
	<g>
		<g>
			<path class="st0" d="M21.3,10.8v-4c0-3.2,2.6-5.8,5.8-5.8h9.7c3.2,0,5.8,2.6,5.8,5.8v4h-4.9v-4c0-0.5-0.4-1-1-1h-9.7
				c-0.5,0-1,0.4-1,1v4L21.3,10.8z"/>
		</g>
		<g>
			<path class="st1" d="M36.9,1.9c2.7,0,4.8,2.2,4.8,4.8v3h-2.9v-3c0-1.1-0.9-1.9-1.9-1.9h-9.7c-1.1,0-1.9,0.9-1.9,1.9v3l-2.9,0v-3
				c0-2.7,2.2-4.8,4.8-4.8H36.9 M36.9,0h-9.7c-3.7,0-6.8,3-6.8,6.8v3v1.9l1.9,0l2.9,0l1.9,0V9.8v-3l9.7,0l0,3v1.9h1.9h2.9h1.9V9.8
				v-3C43.6,3,40.6,0,36.9,0L36.9,0z"/>
		</g>
	</g>
	<g>
		<g>
			<path class="st0" d="M6.8,63c-1.6,0-2.9-1.3-2.9-2.9l0-47c0-0.9,0-1.9,0.3-2.2c0.1-0.1,0.5-0.2,0.7-0.2h52.4
				c1.6,0,2.9,1.3,2.9,2.9v46.4c0,1.6-1.3,2.9-2.9,2.9H6.8z"/>
		</g>
		<g>
			<path class="st1" d="M57.2,11.8c1.1,0,1.9,0.9,1.9,1.9v46.4c0,1.1-0.9,1.9-1.9,1.9H6.8c-1.1,0-1.9-0.9-1.9-1.9V13.7l0-0.5
				c0-0.4,0-1,0-1.4H57.2 M57.2,9.8H4.8c-2.1,0-1.9,1.7-1.9,3.9v46.4c0,2.1,1.7,3.9,3.9,3.9h50.4c2.1,0,3.9-1.7,3.9-3.9V13.7
				C61.1,11.5,59.4,9.8,57.2,9.8L57.2,9.8z"/>
		</g>
	</g>
	<g>
		<path class="st2" d="M59.2,9.8l-54.3,0C2.7,9.8,1,11.5,1,13.7v19.4c0,2.1,1.7,3.9,3.9,3.9h54.3c2.1,0,3.9-1.7,3.9-3.9V13.7
			C63,11.5,61.3,9.8,59.2,9.8L59.2,9.8z"/>
		<path class="st1" d="M59.2,37.9H4.8c-2.7,0-4.8-2.2-4.8-4.8V13.7C0,11,2.2,8.8,4.8,8.8l54.3,0c1.3,0,2.5,0.5,3.4,1.4
			c0.9,0.9,1.4,2.1,1.4,3.4v19.4C64,35.7,61.8,37.9,59.2,37.9z M4.8,10.8c-1.6,0-2.9,1.3-2.9,2.9v19.4c0,1.6,1.3,2.9,2.9,2.9h54.3
			c1.6,0,2.9-1.3,2.9-2.9V13.7c0-0.8-0.3-1.5-0.8-2c-0.6-0.6-1.3-0.9-2.1-0.9L4.8,10.8z"/>
	</g>
	<g>
		<g>
			<path class="st0" d="M48.5,52.5c-0.3-0.1-1.1-0.9-1.9-3c0-0.1-0.1-0.2-0.1-0.3V9.6c0-0.4,0.3-0.8,0.7-0.8h2.4
				c0.4,0,0.8,0.3,0.8,0.8v39.6c0,0.1,0,0.2,0,0.3C49.6,51.5,48.8,52.4,48.5,52.5z M15.6,52.4c-0.3-0.1-1.1-0.9-1.9-3
				c0-0.1-0.1-0.2-0.1-0.3V9.6c0-0.4,0.3-0.8,0.8-0.8h2.4c0.4,0,0.8,0.3,0.8,0.8v39.6c0,0.1,0,0.2,0,0.3
				C16.6,51.5,15.8,52.3,15.6,52.4z"/>
		</g>
		<g>
			<path class="st1" d="M49.5,9.8v39.4c-0.3,0.8-0.7,1.5-0.9,1.9c-0.3-0.4-0.6-1-1-1.9V9.8H49.5 M16.5,9.8v39.4
				c-0.3,0.8-0.7,1.5-0.9,1.9c-0.3-0.4-0.6-1-1-1.9V9.8H16.5 M47.3,7.9c-0.9,0-1.7,0.8-1.7,1.7v39.6c0,0.2,0,0.5,0.1,0.7
				c0.4,0.9,1.6,3.5,2.8,3.5c1.2,0,2.4-2.6,2.7-3.6c0.1-0.2,0.1-0.4,0.1-0.6V9.6c0-0.9-0.8-1.7-1.7-1.7L47.3,7.9
				C47.3,7.9,47.3,7.9,47.3,7.9L47.3,7.9z M16.7,7.9h-2.4c-0.9,0-1.7,0.8-1.7,1.7v39.6c0,0.2,0,0.5,0.1,0.7c0.4,0.9,1.6,3.5,2.8,3.5
				c1.2,0,2.4-2.6,2.7-3.6c0.1-0.2,0.1-0.4,0.1-0.6V9.6C18.4,8.7,17.7,7.9,16.7,7.9L16.7,7.9z"/>
		</g>
	</g>
	<g>
		<g>
			<path class="st2" d="M45.5,45.7c-0.5,0-0.9-0.4-0.9-0.9v-2c0-0.5,0.4-0.9,0.9-0.9h5.9c0.5,0,0.9,0.4,0.9,0.9v2
				c0,0.5-0.4,0.9-0.9,0.9H45.5z M12.6,45.7c-0.5,0-0.9-0.4-0.9-0.9v-2c0-0.5,0.4-0.9,0.9-0.9h5.9c0.5,0,0.9,0.4,0.9,0.9v2
				c0,0.5-0.4,0.9-0.9,0.9H12.6z"/>
		</g>
		<g>
			<path class="st1" d="M51.4,42.8l0,1.9l-5.8,0l0-1.9H51.4 M18.4,42.8l0,1.9l-5.8,0l0-1.9H18.4 M51.4,40.8h-5.9
				c-1.1,0-1.9,0.8-1.9,1.9v2c0,1.1,0.8,1.9,1.9,1.9h5.9c1.1,0,1.9-0.8,1.9-1.9v-2C53.3,41.7,52.5,40.8,51.4,40.8L51.4,40.8z
				 M18.5,40.8h-5.9c-1.1,0-1.9,0.8-1.9,1.9v2c0,1.1,0.8,1.9,1.9,1.9h5.9c1.1,0,1.9-0.8,1.9-1.9v-2C20.4,41.7,19.5,40.8,18.5,40.8
				L18.5,40.8z"/>
		</g>
	</g>
</g>
</svg>
